<svg version="1.1" id="Layer_1" xmlns="http://www.w3.org/2000/svg" xmlns:xlink="http://www.w3.org/1999/xlink" x="0px" y="0px"
	 width="100%" viewBox="0 0 800 800" enable-background="new 0 0 800 800" xml:space="preserve">
<path fill="#FFFFFF" opacity="1.000000" stroke="none" 
	d="
M715.000000,801.000000 
	C476.666656,801.000000 238.833328,801.000000 1.000000,801.000000 
	C1.000000,534.333313 1.000000,267.666656 1.000000,1.000000 
	C267.666656,1.000000 534.333313,1.000000 801.000000,1.000000 
	C801.000000,267.666656 801.000000,534.333313 801.000000,801.000000 
	C772.500000,801.000000 744.000000,801.000000 715.000000,801.000000 
M214.519531,384.127655 
	C197.637375,392.973175 184.853470,405.606049 179.860321,419.015808 
	C183.730225,409.493286 199.537933,401.410156 213.921661,405.583527 
	C213.056305,409.733185 211.984055,413.890533 211.379410,418.114807 
	C210.964340,421.014587 209.717850,422.141998 206.830597,422.031403 
	C202.909958,421.881317 198.979263,421.994019 193.843445,421.994019 
	C212.268356,423.051117 229.476807,424.799957 246.686432,424.811554 
	C263.888885,424.823151 281.092499,423.096863 298.295593,422.132416 
	C298.292206,421.982697 298.288818,421.832977 298.285431,421.683258 
	C293.295624,421.683258 288.305847,421.683258 283.441528,421.683258 
	C282.205658,415.816254 281.068878,410.419647 279.830109,404.538940 
	C283.322784,404.538940 286.109100,404.538940 288.895416,404.538940 
	C285.025085,402.341644 280.350708,401.870056 277.327911,399.387451 
	C274.006104,396.659302 272.204742,392.079803 269.139557,387.386017 
	C289.875305,394.032013 303.741821,407.763367 314.917969,420.984711 
	C297.011261,378.325928 247.797607,367.115204 214.519531,384.127655 
M188.268341,492.157928 
	C186.424667,490.165985 184.581009,488.174011 182.206940,485.609009 
	C183.221085,499.204163 210.454514,520.388977 231.374435,524.835266 
	C266.482635,532.297119 296.685638,516.066650 316.045044,479.334900 
	C309.901764,492.840485 280.262451,515.245850 269.591187,514.507446 
	C274.659546,507.509644 277.900177,498.055573 290.191559,500.348389 
	C289.906189,499.812988 289.620850,499.277588 289.335480,498.742188 
	C286.252777,498.742188 283.170044,498.742188 279.633942,498.742188 
	C280.933868,492.900604 282.107391,487.626984 283.300201,482.266724 
	C288.439911,481.778931 293.472351,481.301331 298.504791,480.823700 
	C264.193390,479.325500 229.903549,478.696747 195.319519,480.712036 
	C200.710236,481.232208 205.752136,481.718689 210.768814,482.202759 
	C211.872147,487.623657 212.908966,492.717773 213.965210,497.907349 
	C208.982086,497.907349 204.666885,497.621918 200.406082,497.981476 
	C195.381409,498.405457 191.697906,496.565948 188.268341,492.157928 
z"/>
<path fill="#1AAAD2" opacity="1.000000" stroke="none" 
	d="
M214.857269,383.971161 
	C247.797607,367.115204 297.011261,378.325928 314.917969,420.984711 
	C303.741821,407.763367 289.875305,394.032013 269.139557,387.386017 
	C272.204742,392.079803 274.006104,396.659302 277.327911,399.387451 
	C280.350708,401.870056 285.025085,402.341644 288.895416,404.538940 
	C286.109100,404.538940 283.322784,404.538940 279.830109,404.538940 
	C281.068878,410.419647 282.205658,415.816254 283.441528,421.683258 
	C288.305847,421.683258 293.295624,421.683258 298.285431,421.683258 
	C298.288818,421.832977 298.292206,421.982697 298.295593,422.132416 
	C281.092499,423.096863 263.888885,424.823151 246.686432,424.811554 
	C229.476807,424.799957 212.268356,423.051117 193.843445,421.994019 
	C198.979263,421.994019 202.909958,421.881317 206.830597,422.031403 
	C209.717850,422.141998 210.964340,421.014587 211.379410,418.114807 
	C211.984055,413.890533 213.056305,409.733185 213.921661,405.583527 
	C199.537933,401.410156 183.730225,409.493286 179.860321,419.015808 
	C184.853470,405.606049 197.637375,392.973175 214.857269,383.971161 
M279.004059,413.650970 
	C278.156738,411.844971 277.503876,409.908569 276.405548,408.270905 
	C275.378265,406.739258 273.933929,404.420837 272.577820,404.352997 
	C264.984528,403.972992 257.362366,404.170105 249.345596,404.170105 
	C248.845718,409.921600 248.382690,415.249207 247.896545,420.842590 
	C259.460327,420.842590 270.314178,420.842590 281.815491,420.842590 
	C280.843292,418.312592 280.087341,416.345337 279.004059,413.650970 
M234.457321,404.114502 
	C230.642822,404.125519 226.825180,404.052795 223.015625,404.195709 
	C221.781586,404.242004 219.878387,404.483795 219.458694,405.267059 
	C216.807983,410.213837 214.488327,415.338013 211.864807,420.809357 
	C224.100250,420.809357 234.964386,420.809357 246.178223,420.809357 
	C245.890884,417.845306 245.686096,415.383636 245.408325,412.930176 
	C244.405457,404.071960 244.396179,404.072998 234.457321,404.114502 
M265.076782,400.098907 
	C267.079681,400.219666 269.082550,400.340424 272.157074,400.525757 
	C266.439941,392.349091 260.879395,386.257599 251.256699,384.626343 
	C250.760757,389.872864 250.331161,394.417572 249.799942,400.037201 
	C254.994949,400.037201 259.582825,400.037201 265.076782,400.098907 
M224.805161,396.453430 
	C224.084854,397.608185 223.364532,398.762909 222.307709,400.457123 
	C230.027878,400.078064 236.852646,399.742981 244.179016,399.383270 
	C243.646942,394.218079 243.180634,389.691193 242.678162,384.813232 
	C234.711365,385.792236 229.762802,390.502136 224.805161,396.453430 
M213.066574,401.830231 
	C214.133865,401.460510 215.661057,401.416412 216.191849,400.666809 
	C219.070938,396.600739 221.703842,392.360382 224.906464,387.434143 
	C213.819901,390.746338 204.838806,395.901886 197.248245,403.916565 
	C202.242401,403.250946 207.236542,402.585358 213.066574,401.830231 
z"/>
<path fill="#1AAAD2" opacity="1.000000" stroke="none" 
	d="
M188.560516,492.384888 
	C191.697906,496.565948 195.381409,498.405457 200.406082,497.981476 
	C204.666885,497.621918 208.982086,497.907349 213.965210,497.907349 
	C212.908966,492.717773 211.872147,487.623657 210.768814,482.202759 
	C205.752136,481.718689 200.710236,481.232208 195.319519,480.712036 
	C229.903549,478.696747 264.193390,479.325500 298.504791,480.823700 
	C293.472351,481.301331 288.439911,481.778931 283.300201,482.266724 
	C282.107391,487.626984 280.933868,492.900604 279.633942,498.742188 
	C283.170044,498.742188 286.252777,498.742188 289.335480,498.742188 
	C289.620850,499.277588 289.906189,499.812988 290.191559,500.348389 
	C277.900177,498.055573 274.659546,507.509644 269.591187,514.507446 
	C280.262451,515.245850 309.901764,492.840485 316.045044,479.334900 
	C296.685638,516.066650 266.482635,532.297119 231.374435,524.835266 
	C210.454514,520.388977 183.221085,499.204163 182.206940,485.609009 
	C184.581009,488.174011 186.424667,490.165985 188.560516,492.384888 
M272.722351,498.806671 
	C278.667267,494.775146 278.969574,487.890076 282.105743,482.190460 
	C258.308929,482.190460 235.395096,482.190460 211.837494,482.190460 
	C214.130539,487.162964 216.095520,491.720337 218.356781,496.125671 
	C218.944504,497.270660 220.435867,498.676910 221.549408,498.709991 
	C229.165085,498.936340 236.790680,498.828705 244.600769,498.828705 
	C245.127197,495.088593 245.600449,491.726257 246.073715,488.363953 
	C246.549301,488.303772 247.024887,488.243622 247.500473,488.183472 
	C248.159851,491.591461 248.819214,494.999451 249.473740,498.382416 
	C249.789749,498.549316 250.077316,498.833405 250.365356,498.833923 
	C257.527283,498.846619 264.689209,498.829376 272.722351,498.806671 
M236.428589,503.186432 
	C231.935333,503.186432 227.442078,503.186432 222.933548,503.186432 
	C227.188797,511.665649 235.530945,517.827393 242.835693,517.636169 
	C243.288574,513.120972 243.745697,508.563293 244.282715,503.209229 
	C241.597015,503.209229 239.491364,503.209229 236.428589,503.186432 
M260.962524,514.586487 
	C264.593353,510.966217 268.224152,507.345947 271.854980,503.725708 
	C271.525146,503.359802 271.195312,502.993896 270.865479,502.627991 
	C263.996429,502.930725 257.127380,503.233459 249.745377,503.558807 
	C250.276657,508.636047 250.754120,513.198975 251.350937,518.902466 
	C254.764008,517.404724 257.544220,516.184753 260.962524,514.586487 
M199.564835,499.256897 
	C198.797348,499.256897 198.029877,499.256897 197.102234,499.256897 
	C201.844971,505.831848 218.126221,514.809326 223.730026,514.415833 
	C220.080658,503.350372 211.524017,499.311462 199.564835,499.256897 
z"/>
<path fill="#FFFFFF" opacity="1.000000" stroke="none" 
	d="
M279.167725,414.014526 
	C280.087341,416.345337 280.843292,418.312592 281.815491,420.842590 
	C270.314178,420.842590 259.460327,420.842590 247.896545,420.842590 
	C248.382690,415.249207 248.845718,409.921600 249.345596,404.170105 
	C257.362366,404.170105 264.984528,403.972992 272.577820,404.352997 
	C273.933929,404.420837 275.378265,406.739258 276.405548,408.270905 
	C277.503876,409.908569 278.156738,411.844971 279.167725,414.014526 
z"/>
<path fill="#FFFFFF" opacity="1.000000" stroke="none" 
	d="
M234.945557,404.112213 
	C244.396179,404.072998 244.405457,404.071960 245.408325,412.930176 
	C245.686096,415.383636 245.890884,417.845306 246.178223,420.809357 
	C234.964386,420.809357 224.100250,420.809357 211.864807,420.809357 
	C214.488327,415.338013 216.807983,410.213837 219.458694,405.267059 
	C219.878387,404.483795 221.781586,404.242004 223.015625,404.195709 
	C226.825180,404.052795 230.642822,404.125519 234.945557,404.112213 
z"/>
<path fill="#FFFFFF" opacity="1.000000" stroke="none" 
	d="
M264.623749,400.068054 
	C259.582825,400.037201 254.994949,400.037201 249.799942,400.037201 
	C250.331161,394.417572 250.760757,389.872864 251.256699,384.626343 
	C260.879395,386.257599 266.439941,392.349091 272.157074,400.525757 
	C269.082550,400.340424 267.079681,400.219666 264.623749,400.068054 
z"/>
<path fill="#FFFFFF" opacity="1.000000" stroke="none" 
	d="
M225.004410,396.144928 
	C229.762802,390.502136 234.711365,385.792236 242.678162,384.813232 
	C243.180634,389.691193 243.646942,394.218079 244.179016,399.383270 
	C236.852646,399.742981 230.027878,400.078064 222.307709,400.457123 
	C223.364532,398.762909 224.084854,397.608185 225.004410,396.144928 
z"/>
<path fill="#FFFFFF" opacity="1.000000" stroke="none" 
	d="
M212.648636,401.875000 
	C207.236542,402.585358 202.242401,403.250946 197.248245,403.916565 
	C204.838806,395.901886 213.819901,390.746338 224.906464,387.434143 
	C221.703842,392.360382 219.070938,396.600739 216.191849,400.666809 
	C215.661057,401.416412 214.133865,401.460510 212.648636,401.875000 
z"/>
<path fill="#FFFFFF" opacity="1.000000" stroke="none" 
	d="
M272.286743,498.812042 
	C264.689209,498.829376 257.527283,498.846619 250.365356,498.833923 
	C250.077316,498.833405 249.789749,498.549316 249.473740,498.382416 
	C248.819214,494.999451 248.159851,491.591461 247.500473,488.183472 
	C247.024887,488.243622 246.549301,488.303772 246.073715,488.363953 
	C245.600449,491.726257 245.127197,495.088593 244.600769,498.828705 
	C236.790680,498.828705 229.165085,498.936340 221.549408,498.709991 
	C220.435867,498.676910 218.944504,497.270660 218.356781,496.125671 
	C216.095520,491.720337 214.130539,487.162964 211.837494,482.190460 
	C235.395096,482.190460 258.308929,482.190460 282.105743,482.190460 
	C278.969574,487.890076 278.667267,494.775146 272.286743,498.812042 
z"/>
<path fill="#FFFFFF" opacity="1.000000" stroke="none" 
	d="
M236.907135,503.197815 
	C239.491364,503.209229 241.597015,503.209229 244.282715,503.209229 
	C243.745697,508.563293 243.288574,513.120972 242.835693,517.636169 
	C235.530945,517.827393 227.188797,511.665649 222.933548,503.186432 
	C227.442078,503.186432 231.935333,503.186432 236.907135,503.197815 
z"/>
<path fill="#FFFFFF" opacity="1.000000" stroke="none" 
	d="
M260.643463,514.775635 
	C257.544220,516.184753 254.764008,517.404724 251.350937,518.902466 
	C250.754120,513.198975 250.276657,508.636047 249.745377,503.558807 
	C257.127380,503.233459 263.996429,502.930725 270.865479,502.627991 
	C271.195312,502.993896 271.525146,503.359802 271.854980,503.725708 
	C268.224152,507.345947 264.593353,510.966217 260.643463,514.775635 
z"/>
<path fill="#FFFFFF" opacity="1.000000" stroke="none" 
	d="
M199.960663,499.358276 
	C211.524017,499.311462 220.080658,503.350372 223.730026,514.415833 
	C218.126221,514.809326 201.844971,505.831848 197.102234,499.256897 
	C198.029877,499.256897 198.797348,499.256897 199.960663,499.358276 
z"/>
</svg>